# xmcd
#
# Track frame offsets:
#  150
#  13828
#  22790
#  35417
#  48793
#  60862
#  73739
#  86837
#  101611
#  115884
#  130040
#  143985
#  159626
#  171840
#  183716
#  196508
#  209022
#  221511
#  236397
#  248655
#  262497
#  277297
#  291566
#  305353
#  316818
#
# Disc length: 4275 seconds
#
# Revision: 0
# Processed by: cddbd v1.5.1PL0 Copyright (c) Steve Scherf et al.
# Submitted via: Collectorz.com_Music_Collector 6.9
#
DISCID=7410b119
DTITLE=Various Artist - American Primitive Vol. 2: Pre-War Revenants (1897-1939) Disc 2
DYEAR=2005
DGENRE=
TTITLE0=Geeshie Wiley - Last Kind Words Blues
TTITLE1=Cousins and Demoss - Poor Mourner
TTITLE2=Bayless Rose - Jamestown Exhibition
TTITLE3=Nugrape Twins - There's a City Built of Mansions
TTITLE4=Henry Spaulding - Cairo Blues
TTITLE5=Two Poor Boys - Two White Horses In A Line
TTITLE6=(Red Hot) Old Mose (Moses Mason) - Shrimp Man
TTITLE7=The Bubbling Over Five - Don't Mistreat Your Good Boyfriend
TTITLE8=William Harris - Bull Frog Blues
TTITLE9=John Hammond - Purty Polly
TTITLE10=Homer Quincy Smith - Go Down Moses
TTITLE11=Wiley, Geeshie and Elvie Thomas - Over To My House
TTITLE12=Tommy Settlers And His Blues Moaner - Shaking Weed Blues
TTITLE13=Mattie May Thomas - Big Mac from Macamere
TTITLE14=Pigmeat Terry - Moaning the Blues
TTITLE15=Bayless Rose - Original Blues
TTITLE16=Two Poor Boys - John Henry Blues (take 3)
TTITLE17=Elizabeth Johnson - Sobbin' Woman Blues
TTITLE18=Otto Virgial - Bad Notion Blues
TTITLE19=Geeshie Wiley - Eagles on a Half
TTITLE20=Alfred Lewis - Mississippi Swamp Moan
TTITLE21=(Red Hot) Old Mose (Moses Mason) - Red Cross The Disciple Of Christ Today
TTITLE22=William Harris - Kansas City Blues
TTITLE23=John Hammond - As Free As A Little Bird Can Be
TTITLE24=Mattie May Thomas - No Mo' Freedom
EXTD=
EXTT0=
EXTT1=
EXTT2=
EXTT3=
EXTT4=
EXTT5=
EXTT6=
EXTT7=
EXTT8=
EXTT9=
EXTT10=
EXTT11=
EXTT12=
EXTT13=
EXTT14=
EXTT15=
EXTT16=
EXTT17=
EXTT18=
EXTT19=
EXTT20=
EXTT21=
EXTT22=
EXTT23=
EXTT24=
PLAYORDER=
